<svg width="409" height="79" viewBox="0 0 409 79" fill="none" xmlns="http://www.w3.org/2000/svg">
<path d="M183.032 38.41C183.172 35.5167 183.919 32.9267 185.272 30.64C186.672 28.3533 188.469 26.5567 190.662 25.25C192.902 23.9433 195.376 23.29 198.082 23.29C200.229 23.29 201.886 23.5933 203.052 24.2C204.219 24.8067 204.662 25.6933 204.382 26.86C204.196 27.56 203.869 28.0267 203.402 28.26C202.982 28.4933 202.446 28.5867 201.792 28.54C201.186 28.4933 200.486 28.4467 199.692 28.4C197.079 28.1667 194.745 28.4467 192.692 29.24C190.685 29.9867 189.076 31.1533 187.862 32.74C186.696 34.3267 186.112 36.2167 186.112 38.41H183.032ZM183.452 62C182.612 62 181.959 61.7667 181.492 61.3C181.026 60.8333 180.792 60.18 180.792 59.34V26.37C180.792 25.53 181.026 24.8767 181.492 24.41C181.959 23.9433 182.612 23.71 183.452 23.71C184.292 23.71 184.945 23.9433 185.412 24.41C185.879 24.8767 186.112 25.53 186.112 26.37V59.34C186.112 60.18 185.879 60.8333 185.412 61.3C184.945 61.7667 184.292 62 183.452 62Z" fill="white"/>
<path d="M227.48 62.35C223.747 62.35 220.41 61.51 217.47 59.83C214.53 58.15 212.22 55.84 210.54 52.9C208.86 49.96 208.02 46.6233 208.02 42.89C208.02 39.11 208.86 35.75 210.54 32.81C212.22 29.87 214.53 27.56 217.47 25.88C220.41 24.2 223.747 23.36 227.48 23.36C231.213 23.36 234.527 24.2 237.42 25.88C240.36 27.56 242.67 29.87 244.35 32.81C246.03 35.75 246.893 39.11 246.94 42.89C246.94 46.6233 246.077 49.96 244.35 52.9C242.67 55.84 240.36 58.15 237.42 59.83C234.527 61.51 231.213 62.35 227.48 62.35ZM227.48 57.45C230.187 57.45 232.613 56.82 234.76 55.56C236.907 54.3 238.587 52.5733 239.8 50.38C241.013 48.1867 241.62 45.69 241.62 42.89C241.62 40.09 241.013 37.5933 239.8 35.4C238.587 33.16 236.907 31.41 234.76 30.15C232.613 28.89 230.187 28.26 227.48 28.26C224.773 28.26 222.347 28.89 220.2 30.15C218.053 31.41 216.35 33.16 215.09 35.4C213.877 37.5933 213.27 40.09 213.27 42.89C213.27 45.69 213.877 48.1867 215.09 50.38C216.35 52.5733 218.053 54.3 220.2 55.56C222.347 56.82 224.773 57.45 227.48 57.45Z" fill="white"/>
<path d="M274.503 62.35C270.816 62.35 267.526 61.51 264.633 59.83C261.786 58.1033 259.523 55.77 257.843 52.83C256.21 49.89 255.393 46.5767 255.393 42.89C255.393 39.1567 256.186 35.82 257.773 32.88C259.36 29.94 261.53 27.63 264.283 25.95C267.036 24.2233 270.21 23.36 273.803 23.36C276.65 23.36 279.263 23.92 281.643 25.04C284.07 26.16 286.193 27.84 288.013 30.08C288.526 30.64 288.713 31.2467 288.573 31.9C288.433 32.5067 288.036 33.0433 287.383 33.51C286.87 33.8833 286.286 34.0233 285.633 33.93C285.026 33.79 284.49 33.44 284.023 32.88C281.316 29.8 277.91 28.26 273.803 28.26C271.19 28.26 268.88 28.89 266.873 30.15C264.913 31.41 263.373 33.1367 262.253 35.33C261.18 37.5233 260.643 40.0433 260.643 42.89C260.643 45.69 261.226 48.1867 262.393 50.38C263.56 52.5733 265.193 54.3 267.293 55.56C269.393 56.82 271.796 57.45 274.503 57.45C276.323 57.45 277.98 57.2167 279.473 56.75C281.013 56.2367 282.366 55.4667 283.533 54.44C284.093 53.9733 284.676 53.7167 285.283 53.67C285.89 53.6233 286.45 53.81 286.963 54.23C287.523 54.7433 287.826 55.3267 287.873 55.98C287.966 56.6333 287.756 57.1933 287.243 57.66C283.836 60.7867 279.59 62.35 274.503 62.35Z" fill="white"/>
<path d="M316.414 62.35C312.634 62.35 309.274 61.5333 306.334 59.9C303.44 58.22 301.154 55.91 299.474 52.97C297.84 50.03 297.024 46.67 297.024 42.89C297.024 39.0633 297.794 35.7033 299.334 32.81C300.92 29.87 303.09 27.56 305.844 25.88C308.597 24.2 311.77 23.36 315.364 23.36C318.91 23.36 321.991 24.1767 324.604 25.81C327.264 27.3967 329.317 29.6133 330.764 32.46C332.211 35.3067 332.934 38.55 332.934 42.19C332.934 42.9367 332.701 43.5433 332.234 44.01C331.767 44.43 331.16 44.64 330.414 44.64H300.664V40.16H330.974L327.964 42.33C328.01 39.6233 327.52 37.1967 326.494 35.05C325.467 32.9033 323.997 31.2233 322.084 30.01C320.217 28.7967 317.977 28.19 315.364 28.19C312.704 28.19 310.37 28.82 308.364 30.08C306.357 31.34 304.794 33.09 303.674 35.33C302.6 37.5233 302.064 40.0433 302.064 42.89C302.064 45.7367 302.671 48.2567 303.884 50.45C305.144 52.6433 306.847 54.37 308.994 55.63C311.14 56.89 313.614 57.52 316.414 57.52C318.094 57.52 319.774 57.24 321.454 56.68C323.181 56.0733 324.557 55.3267 325.584 54.44C326.097 54.02 326.68 53.81 327.334 53.81C327.987 53.7633 328.547 53.9267 329.014 54.3C329.621 54.86 329.924 55.4667 329.924 56.12C329.97 56.7733 329.714 57.3333 329.154 57.8C327.614 59.1067 325.654 60.2033 323.274 61.09C320.894 61.93 318.607 62.35 316.414 62.35Z" fill="white"/>
<path d="M355.422 62.35C352.669 62.35 349.939 61.8833 347.232 60.95C344.525 60.0167 342.332 58.6167 340.652 56.75C340.139 56.19 339.929 55.56 340.022 54.86C340.115 54.16 340.465 53.5533 341.072 53.04C341.725 52.5733 342.402 52.3867 343.102 52.48C343.802 52.5733 344.385 52.8767 344.852 53.39C345.972 54.6967 347.442 55.7 349.262 56.4C351.129 57.1 353.182 57.45 355.422 57.45C358.875 57.45 361.372 56.8667 362.912 55.7C364.452 54.4867 365.245 53.04 365.292 51.36C365.292 49.68 364.499 48.3033 362.912 47.23C361.325 46.11 358.712 45.2467 355.072 44.64C350.359 43.8933 346.905 42.5867 344.712 40.72C342.519 38.8533 341.422 36.6367 341.422 34.07C341.422 31.69 342.052 29.7067 343.312 28.12C344.572 26.5333 346.252 25.3433 348.352 24.55C350.452 23.7567 352.762 23.36 355.282 23.36C358.409 23.36 361.092 23.8967 363.332 24.97C365.619 26.0433 367.462 27.49 368.862 29.31C369.329 29.9167 369.515 30.5467 369.422 31.2C369.329 31.8533 368.955 32.39 368.302 32.81C367.742 33.1367 367.089 33.2533 366.342 33.16C365.642 33.02 365.035 32.67 364.522 32.11C363.355 30.7567 362.002 29.7767 360.462 29.17C358.922 28.5167 357.149 28.19 355.142 28.19C352.575 28.19 350.522 28.7267 348.982 29.8C347.442 30.8267 346.672 32.1333 346.672 33.72C346.672 34.7933 346.952 35.7267 347.512 36.52C348.119 37.3133 349.122 38.0133 350.522 38.62C351.969 39.2267 353.975 39.74 356.542 40.16C360.042 40.72 362.795 41.56 364.802 42.68C366.855 43.7533 368.302 45.0367 369.142 46.53C370.029 47.9767 370.472 49.5633 370.472 51.29C370.472 53.4833 369.819 55.42 368.512 57.1C367.252 58.7333 365.479 60.0167 363.192 60.95C360.952 61.8833 358.362 62.35 355.422 62.35Z" fill="white"/>
<path d="M393.156 62.35C390.403 62.35 387.673 61.8833 384.967 60.95C382.26 60.0167 380.066 58.6167 378.386 56.75C377.873 56.19 377.663 55.56 377.756 54.86C377.85 54.16 378.2 53.5533 378.806 53.04C379.46 52.5733 380.136 52.3867 380.836 52.48C381.536 52.5733 382.12 52.8767 382.586 53.39C383.706 54.6967 385.176 55.7 386.996 56.4C388.863 57.1 390.916 57.45 393.156 57.45C396.61 57.45 399.106 56.8667 400.646 55.7C402.186 54.4867 402.98 53.04 403.026 51.36C403.026 49.68 402.233 48.3033 400.646 47.23C399.06 46.11 396.446 45.2467 392.806 44.64C388.093 43.8933 384.64 42.5867 382.446 40.72C380.253 38.8533 379.156 36.6367 379.156 34.07C379.156 31.69 379.786 29.7067 381.046 28.12C382.306 26.5333 383.986 25.3433 386.086 24.55C388.186 23.7567 390.496 23.36 393.016 23.36C396.143 23.36 398.826 23.8967 401.066 24.97C403.353 26.0433 405.196 27.49 406.596 29.31C407.063 29.9167 407.25 30.5467 407.156 31.2C407.063 31.8533 406.69 32.39 406.036 32.81C405.476 33.1367 404.823 33.2533 404.076 33.16C403.376 33.02 402.77 32.67 402.256 32.11C401.09 30.7567 399.736 29.7767 398.196 29.17C396.656 28.5167 394.883 28.19 392.876 28.19C390.31 28.19 388.256 28.7267 386.716 29.8C385.176 30.8267 384.406 32.1333 384.406 33.72C384.406 34.7933 384.687 35.7267 385.247 36.52C385.853 37.3133 386.856 38.0133 388.256 38.62C389.703 39.2267 391.71 39.74 394.276 40.16C397.776 40.72 400.53 41.56 402.536 42.68C404.59 43.7533 406.036 45.0367 406.876 46.53C407.763 47.9767 408.206 49.5633 408.206 51.29C408.206 53.4833 407.553 55.42 406.246 57.1C404.986 58.7333 403.213 60.0167 400.926 60.95C398.686 61.8833 396.096 62.35 393.156 62.35Z" fill="white"/>
<path d="M150.62 61.3001C146.887 61.3001 143.55 60.4601 140.61 58.7801C137.67 57.1001 135.36 54.7901 133.68 51.8501C132 48.9101 131.16 45.5734 131.16 41.8401C131.16 38.0601 132 34.7001 133.68 31.7601C135.36 28.8201 137.67 26.5101 140.61 24.8301C143.55 23.1501 146.887 22.3101 150.62 22.3101C154.353 22.3101 157.667 23.1501 160.56 24.8301C163.5 26.5101 165.81 28.8201 167.49 31.7601C169.17 34.7001 170.033 38.0601 170.08 41.8401C170.08 45.5734 169.217 48.9101 167.49 51.8501C165.81 54.7901 163.5 57.1001 160.56 58.7801C157.667 60.4601 154.353 61.3001 150.62 61.3001ZM150.62 56.4001C153.327 56.4001 155.753 55.7701 157.9 54.5101C160.047 53.2501 161.727 51.5234 162.94 49.3301C164.153 47.1367 164.76 44.6401 164.76 41.8401C164.76 39.0401 164.153 36.5434 162.94 34.3501C161.727 32.1101 160.047 30.3601 157.9 29.1001C155.753 27.8401 153.327 27.2101 150.62 27.2101C147.913 27.2101 145.487 27.8401 143.34 29.1001C141.193 30.3601 139.49 32.1101 138.23 34.3501C137.017 36.5434 136.41 39.0401 136.41 41.8401C136.41 44.6401 137.017 47.1367 138.23 49.3301C139.49 51.5234 141.193 53.2501 143.34 54.5101C145.487 55.7701 147.913 56.4001 150.62 56.4001Z" fill="white"/>
<path d="M133.913 78.66C133.073 78.66 132.396 78.4034 131.883 77.89C131.416 77.4234 131.183 76.77 131.183 75.93V55.2797C133.131 59.0598 134.481 60.0516 136.573 61.5V75.93C136.573 76.77 136.316 77.4234 135.803 77.89C135.336 78.4034 134.706 78.66 133.913 78.66Z" fill="white"/>
<path d="M38.64 62.07C37.6133 62.07 36.75 61.7433 36.05 61.09C35.3967 60.39 35.07 59.5267 35.07 58.5V41.28C35.07 38.62 34.58 36.45 33.6 34.77C32.62 33.09 31.29 31.8533 29.61 31.06C27.9767 30.22 26.0867 29.8 23.94 29.8C21.98 29.8 20.2067 30.1967 18.62 30.99C17.0333 31.7833 15.7733 32.8567 14.84 34.21C13.9067 35.5167 13.44 37.0333 13.44 38.76H9.03C9.03 35.82 9.73 33.2067 11.13 30.92C12.5767 28.5867 14.5367 26.7433 17.01 25.39C19.4833 24.0367 22.26 23.36 25.34 23.36C28.56 23.36 31.43 24.06 33.95 25.46C36.5167 26.8133 38.5233 28.82 39.97 31.48C41.4633 34.14 42.21 37.4067 42.21 41.28V58.5C42.21 59.5267 41.86 60.39 41.16 61.09C40.5067 61.7433 39.6667 62.07 38.64 62.07ZM9.87 62.07C8.84333 62.07 7.98 61.7433 7.28 61.09C6.62667 60.39 6.3 59.5267 6.3 58.5V27.28C6.3 26.2067 6.62667 25.3433 7.28 24.69C7.98 24.0367 8.84333 23.71 9.87 23.71C10.9433 23.71 11.8067 24.0367 12.46 24.69C13.1133 25.3433 13.44 26.2067 13.44 27.28V58.5C13.44 59.5267 13.1133 60.39 12.46 61.09C11.8067 61.7433 10.9433 62.07 9.87 62.07ZM71.3748 62.28C67.5948 62.28 64.2582 61.4633 61.3648 59.83C58.4715 58.15 56.1848 55.8633 54.5048 52.97C52.8715 50.03 52.0548 46.67 52.0548 42.89C52.0548 39.0633 52.8715 35.7033 54.5048 32.81C56.1848 29.87 58.4715 27.5833 61.3648 25.95C64.2582 24.27 67.5948 23.43 71.3748 23.43C75.1082 23.43 78.4215 24.27 81.3148 25.95C84.2082 27.5833 86.4715 29.87 88.1048 32.81C89.7848 35.7033 90.6248 39.0633 90.6248 42.89C90.6248 46.67 89.8082 50.03 88.1748 52.97C86.5415 55.8633 84.2782 58.15 81.3848 59.83C78.4915 61.4633 75.1548 62.28 71.3748 62.28ZM71.3748 55.98C73.8015 55.98 75.9482 55.42 77.8148 54.3C79.6815 53.18 81.1282 51.64 82.1548 49.68C83.2282 47.72 83.7648 45.4567 83.7648 42.89C83.7648 40.3233 83.2282 38.06 82.1548 36.1C81.1282 34.0933 79.6815 32.53 77.8148 31.41C75.9482 30.29 73.8015 29.73 71.3748 29.73C68.9482 29.73 66.8015 30.29 64.9348 31.41C63.0682 32.53 61.5982 34.0933 60.5248 36.1C59.4515 38.06 58.9148 40.3233 58.9148 42.89C58.9148 45.4567 59.4515 47.72 60.5248 49.68C61.5982 51.64 63.0682 53.18 64.9348 54.3C66.8015 55.42 68.9482 55.98 71.3748 55.98Z" fill="white"/>
<path d="M109.52 37.52C108.4 37.52 107.42 37.12 106.58 36.32C105.78 35.48 105.38 34.5 105.38 33.38C105.38 32.22 105.78 31.24 106.58 30.44C107.42 29.6 108.4 29.18 109.52 29.18C110.68 29.18 111.66 29.6 112.46 30.44C113.26 31.24 113.66 32.22 113.66 33.38C113.66 34.5 113.26 35.48 112.46 36.32C111.66 37.12 110.68 37.52 109.52 37.52ZM110.18 62.96C109.06 62.96 108.08 62.56 107.24 61.76C106.44 60.92 106.04 59.94 106.04 58.82C106.04 57.66 106.44 56.68 107.24 55.88C108.08 55.04 109.06 54.62 110.18 54.62C111.34 54.62 112.32 55.04 113.12 55.88C113.92 56.68 114.32 57.66 114.32 58.82C114.32 59.94 113.92 60.92 113.12 61.76C112.32 62.56 111.34 62.96 110.18 62.96Z" fill="white"/>
</svg>
