<svg width="42" height="32" viewBox="0 0 42 32" fill="none" xmlns="http://www.w3.org/2000/svg">
<path d="M32.8976 26.784H9.1024C7.39672 26.784 6.02393 25.4112 6.02393 23.7055V9.89427C6.02393 8.1886 7.39672 6.8158 9.1024 6.8158H32.9392C34.6449 6.8158 36.0177 8.1886 36.0177 9.89427V23.7471C35.9762 25.4112 34.6033 26.7838 32.8977 26.7838L32.8976 26.784ZM20.7504 18.0063L8.936 11.6415C8.56167 11.4335 8.10407 11.683 8.10407 12.0992V24.6208C8.10407 24.9121 8.35363 25.1199 8.64496 25.1199H33.3553C33.6467 25.1199 33.8962 24.8703 33.8962 24.6208L33.8959 12.0992C33.8959 11.683 33.4383 11.4335 33.064 11.6415L21.2496 18.0063C21.0834 18.0896 20.9168 18.0896 20.7505 18.0063H20.7504ZM33.272 8.47994H8.728C8.10412 8.47994 7.85425 9.2286 8.43666 9.51994L20.7086 15.6767C20.9167 15.76 21.1248 15.76 21.3325 15.6767L33.6045 9.51994C34.1457 9.2286 33.8962 8.47994 33.272 8.47994H33.272Z" fill="white"/>
</svg>
